<svg width="15" height="30" viewBox="0 0 15 30" fill="none" xmlns="http://www.w3.org/2000/svg">
<path d="M15 1.66667C15 0.911745 14.1955 0.429057 13.5294 0.784314L0.529412 7.71765C0.203548 7.89144 0 8.23069 0 8.6V29C0 29.5523 0.447715 30 1 30H14C14.5523 30 15 29.5523 15 29V1.66667Z" fill="#1C1C1D"/>
<path d="M3.53267 21V15.1818H4.23722V20.375H6.94176V21H3.53267ZM7.9304 21V20.4886L9.85085 18.3864C10.0762 18.1402 10.2618 17.9261 10.4077 17.7443C10.5535 17.5606 10.6615 17.3883 10.7315 17.2273C10.8035 17.0644 10.8395 16.8939 10.8395 16.7159C10.8395 16.5114 10.7902 16.3343 10.6918 16.1847C10.5952 16.035 10.4626 15.9195 10.294 15.8381C10.1255 15.7566 9.93608 15.7159 9.72585 15.7159C9.50237 15.7159 9.30729 15.7623 9.14062 15.8551C8.97585 15.946 8.84801 16.0739 8.7571 16.2386C8.66809 16.4034 8.62358 16.5966 8.62358 16.8182H7.95312C7.95312 16.4773 8.03172 16.178 8.18892 15.9205C8.34612 15.6629 8.56013 15.4621 8.83097 15.3182C9.10369 15.1742 9.40956 15.1023 9.74858 15.1023C10.0895 15.1023 10.3916 15.1742 10.6548 15.3182C10.9181 15.4621 11.1245 15.6562 11.2741 15.9006C11.4238 16.1449 11.4986 16.4167 11.4986 16.7159C11.4986 16.9299 11.4598 17.1392 11.3821 17.3438C11.3063 17.5464 11.1738 17.7727 10.9844 18.0227C10.7969 18.2708 10.5365 18.5739 10.2031 18.9318L8.89631 20.3295V20.375H11.6009V21H7.9304Z" fill="white"/>
</svg>
