<svg width="21" height="13" viewBox="0 0 21 13" fill="none" xmlns="http://www.w3.org/2000/svg">
<path d="M21 2.24004C21 1.71175 20.5891 1.2746 20.0618 1.24195L1.14382 0.0708098C0.538856 0.0333586 0.039937 0.53841 0.0847735 1.14287L0.703154 9.47955C0.731758 9.86518 0.980128 10.1998 1.34097 10.3387L8.04903 12.9226C8.18149 12.9736 8.3233 12.9958 8.46502 12.9878L20.0566 12.3312C20.586 12.3012 21 11.8631 21 11.3328V2.24004Z" fill="#1C1C1D"/>
<path d="M6.91921 9V3.90909H7.53569V8.45312H9.90217V9H6.91921ZM12.4874 9.0696C12.1593 9.0696 11.8668 9.01326 11.6099 8.90057C11.3547 8.78788 11.1517 8.63127 11.0009 8.43075C10.8517 8.22857 10.7705 7.99408 10.7573 7.72727H11.3837C11.397 7.89134 11.4533 8.03303 11.5527 8.15234C11.6522 8.27 11.7823 8.36115 11.943 8.42578C12.1038 8.49041 12.2819 8.52273 12.4775 8.52273C12.6962 8.52273 12.8901 8.48461 13.0591 8.40838C13.2282 8.33215 13.3607 8.22609 13.4569 8.0902C13.553 7.95431 13.601 7.79688 13.601 7.6179C13.601 7.43063 13.5546 7.26574 13.4618 7.12322C13.369 6.97905 13.2331 6.86636 13.0542 6.78516C12.8752 6.70395 12.6564 6.66335 12.3979 6.66335H11.9902V6.11648H12.3979C12.6001 6.11648 12.7774 6.08002 12.9299 6.0071C13.084 5.93419 13.2041 5.83144 13.2903 5.69886C13.3781 5.56629 13.4221 5.41051 13.4221 5.23153C13.4221 5.05919 13.3839 4.90921 13.3077 4.7816C13.2315 4.654 13.1238 4.55457 12.9846 4.48331C12.847 4.41205 12.6846 4.37642 12.4973 4.37642C12.3217 4.37642 12.156 4.40874 12.0002 4.47337C11.8461 4.53634 11.7201 4.62831 11.6223 4.74929C11.5246 4.86861 11.4715 5.01278 11.4632 5.18182H10.8667C10.8766 4.91501 10.957 4.68134 11.1078 4.48082C11.2586 4.27865 11.4558 4.12121 11.6994 4.00852C11.9447 3.89583 12.214 3.83949 12.5073 3.83949C12.8221 3.83949 13.0923 3.90329 13.3176 4.03089C13.543 4.15684 13.7162 4.32339 13.8372 4.53054C13.9582 4.73769 14.0186 4.96141 14.0186 5.2017C14.0186 5.4884 13.9432 5.73284 13.7924 5.93501C13.6433 6.13719 13.4403 6.27723 13.1834 6.35511V6.39489C13.5049 6.44792 13.756 6.58464 13.9366 6.80504C14.1172 7.02379 14.2076 7.29474 14.2076 7.6179C14.2076 7.89465 14.1322 8.14323 13.9814 8.36364C13.8322 8.58239 13.6284 8.75473 13.3699 8.88068C13.1113 9.00663 12.8172 9.0696 12.4874 9.0696Z" fill="white"/>
</svg>
