<svg width="14" height="24" viewBox="0 0 14 24" fill="none" xmlns="http://www.w3.org/2000/svg">
<path d="M2.3626 2.07706C2.44731 1.7213 2.71947 1.44015 3.07229 1.34392L6.58052 0.387131C7.26157 0.201389 7.91548 0.760716 7.83752 1.46233L7.2176 7.0416C7.08551 8.23044 7.67227 9.38416 8.71084 9.97762L13.4961 12.7121C13.8077 12.8901 14 13.2215 14 13.5803V14.3406C14 14.7406 13.7616 15.1022 13.3939 15.2597L9.16458 17.0723C7.8939 17.6169 7.15988 18.9593 7.38716 20.323L7.75416 22.525C7.87127 23.2276 7.23702 23.8239 6.54291 23.6637L2.16812 22.6542C1.76549 22.5613 1.46147 22.2303 1.40303 21.8212L0.56445 15.9512C0.191488 13.3404 0.31362 10.6828 0.924459 8.11727L2.3626 2.07706Z" fill="#1C1C1D"/>
</svg>
