<svg width="15" height="30" viewBox="0 0 15 30" fill="none" xmlns="http://www.w3.org/2000/svg">
<path d="M0 1.66667C0 0.911745 0.804482 0.429057 1.47059 0.784314L14.4706 7.71765C14.7965 7.89144 15 8.23069 15 8.6V29C15 29.5523 14.5523 30 14 30H1C0.447715 30 0 29.5523 0 29V1.66667Z" fill="#1C1C1D"/>
<path d="M3.22408 21V15.1818H5.18999C5.64453 15.1818 6.01764 15.2595 6.3093 15.4148C6.60097 15.5682 6.81688 15.7794 6.95703 16.0483C7.09718 16.3172 7.16726 16.6231 7.16726 16.9659C7.16726 17.3087 7.09718 17.6127 6.95703 17.8778C6.81688 18.143 6.60192 18.3513 6.31214 18.5028C6.02237 18.6525 5.65211 18.7273 5.20135 18.7273H3.61044V18.0909H5.17862C5.48923 18.0909 5.73923 18.0455 5.92862 17.9545C6.11991 17.8636 6.25817 17.7348 6.34339 17.5682C6.43052 17.3996 6.47408 17.1989 6.47408 16.9659C6.47408 16.733 6.43052 16.5294 6.34339 16.3551C6.25627 16.1809 6.11707 16.0464 5.92578 15.9517C5.73449 15.8551 5.48165 15.8068 5.16726 15.8068H3.92862V21H3.22408ZM5.96271 18.3864L7.39453 21H6.57635L5.16726 18.3864H5.96271ZM8.23899 21V20.4886L10.1594 18.3864C10.3848 18.1402 10.5704 17.9261 10.7163 17.7443C10.8621 17.5606 10.9701 17.3883 11.0401 17.2273C11.1121 17.0644 11.1481 16.8939 11.1481 16.7159C11.1481 16.5114 11.0988 16.3343 11.0004 16.1847C10.9038 16.035 10.7712 15.9195 10.6026 15.8381C10.4341 15.7566 10.2447 15.7159 10.0344 15.7159C9.81096 15.7159 9.61589 15.7623 9.44922 15.8551C9.28445 15.946 9.15661 16.0739 9.0657 16.2386C8.97668 16.4034 8.93217 16.5966 8.93217 16.8182H8.26172C8.26172 16.4773 8.34032 16.178 8.49751 15.9205C8.65471 15.6629 8.86873 15.4621 9.13956 15.3182C9.41229 15.1742 9.71816 15.1023 10.0572 15.1023C10.3981 15.1023 10.7002 15.1742 10.9634 15.3182C11.2267 15.4621 11.4331 15.6562 11.5827 15.9006C11.7324 16.1449 11.8072 16.4167 11.8072 16.7159C11.8072 16.9299 11.7683 17.1392 11.6907 17.3438C11.6149 17.5464 11.4824 17.7727 11.293 18.0227C11.1055 18.2708 10.8451 18.5739 10.5117 18.9318L9.2049 20.3295V20.375H11.9094V21H8.23899Z" fill="white"/>
</svg>
