<svg width="21" height="13" viewBox="0 0 21 13" fill="none" xmlns="http://www.w3.org/2000/svg">
<path d="M0 2.24004C0 1.71175 0.41093 1.2746 0.938212 1.24195L19.8562 0.0708098C20.4611 0.0333586 20.9601 0.53841 20.9152 1.14287L20.2968 9.47955C20.2682 9.86518 20.0199 10.1998 19.659 10.3387L12.951 12.9226C12.8185 12.9736 12.6767 12.9958 12.535 12.9878L0.943445 12.3312C0.413979 12.3012 0 11.8631 0 11.3328V2.24004Z" fill="#1C1C1D"/>
<path d="M6.64919 9V3.90909H8.36936C8.76709 3.90909 9.09356 3.97704 9.34877 4.11293C9.60397 4.24716 9.79289 4.43194 9.91553 4.66726C10.0382 4.90258 10.0995 5.17022 10.0995 5.47017C10.0995 5.77012 10.0382 6.0361 9.91553 6.26811C9.79289 6.50012 9.6048 6.68241 9.35125 6.81499C9.0977 6.9459 8.77372 7.01136 8.37931 7.01136H6.98726V6.45455H8.35942C8.6312 6.45455 8.84995 6.41477 9.01567 6.33523C9.18305 6.25568 9.30402 6.14299 9.3786 5.99716C9.45483 5.84967 9.49294 5.67401 9.49294 5.47017C9.49294 5.26634 9.45483 5.08819 9.3786 4.93572C9.30236 4.78326 9.18056 4.6656 9.01318 4.58274C8.84581 4.49822 8.62457 4.45597 8.34948 4.45597H7.26567V9H6.64919ZM9.0455 6.71307L10.2983 9H9.58243L8.34948 6.71307H9.0455ZM12.7574 9.0696C12.4293 9.0696 12.1368 9.01326 11.8799 8.90057C11.6247 8.78788 11.4217 8.63127 11.2709 8.43075C11.1218 8.22857 11.0406 7.99408 11.0273 7.72727H11.6537C11.667 7.89134 11.7233 8.03303 11.8228 8.15234C11.9222 8.27 12.0523 8.36115 12.213 8.42578C12.3738 8.49041 12.5519 8.52273 12.7475 8.52273C12.9662 8.52273 13.1601 8.48461 13.3291 8.40838C13.4982 8.33215 13.6308 8.22609 13.7269 8.0902C13.823 7.95431 13.871 7.79688 13.871 7.6179C13.871 7.43063 13.8246 7.26574 13.7318 7.12322C13.639 6.97905 13.5032 6.86636 13.3242 6.78516C13.1452 6.70395 12.9264 6.66335 12.6679 6.66335H12.2603V6.11648H12.6679C12.8701 6.11648 13.0474 6.08002 13.1999 6.0071C13.354 5.93419 13.4742 5.83144 13.5603 5.69886C13.6482 5.56629 13.6921 5.41051 13.6921 5.23153C13.6921 5.05919 13.654 4.90921 13.5777 4.7816C13.5015 4.654 13.3938 4.55457 13.2546 4.48331C13.117 4.41205 12.9546 4.37642 12.7674 4.37642C12.5917 4.37642 12.426 4.40874 12.2702 4.47337C12.1161 4.53634 11.9901 4.62831 11.8924 4.74929C11.7946 4.86861 11.7416 5.01278 11.7333 5.18182H11.1367C11.1466 4.91501 11.227 4.68134 11.3778 4.48082C11.5286 4.27865 11.7258 4.12121 11.9694 4.00852C12.2147 3.89583 12.484 3.83949 12.7773 3.83949C13.0922 3.83949 13.3623 3.90329 13.5877 4.03089C13.813 4.15684 13.9862 4.32339 14.1072 4.53054C14.2282 4.73769 14.2887 4.96141 14.2887 5.2017C14.2887 5.4884 14.2133 5.73284 14.0625 5.93501C13.9133 6.13719 13.7103 6.27723 13.4534 6.35511V6.39489C13.7749 6.44792 14.026 6.58464 14.2066 6.80504C14.3873 7.02379 14.4776 7.29474 14.4776 7.6179C14.4776 7.89465 14.4022 8.14323 14.2514 8.36364C14.1022 8.58239 13.8984 8.75473 13.6399 8.88068C13.3813 9.00663 13.0872 9.0696 12.7574 9.0696Z" fill="white"/>
</svg>
