<svg width="14" height="24" viewBox="0 0 14 24" fill="none" xmlns="http://www.w3.org/2000/svg">
<path d="M11.6374 2.07706C11.5527 1.7213 11.2805 1.44015 10.9277 1.34392L7.41948 0.387131C6.73843 0.201389 6.08452 0.760716 6.16248 1.46233L6.7824 7.0416C6.91449 8.23044 6.32773 9.38416 5.28916 9.97762L0.503861 12.7121C0.192286 12.8901 0 13.2215 0 13.5803V14.3406C0 14.7406 0.238397 15.1022 0.606081 15.2597L4.83542 17.0723C6.1061 17.6169 6.84012 18.9593 6.61284 20.323L6.24584 22.525C6.12873 23.2276 6.76298 23.8239 7.45709 23.6637L11.8319 22.6542C12.2345 22.5613 12.5385 22.2303 12.597 21.8212L13.4355 15.9512C13.8085 13.3404 13.6864 10.6828 13.0755 8.11727L11.6374 2.07706Z" fill="#1C1C1D"/>
</svg>
