<svg width="349" height="206" viewBox="0 0 349 206" fill="none" xmlns="http://www.w3.org/2000/svg">
<path d="M87.2275 128H2.7475V32H36.0275V98.56H87.2275V128ZM191.317 128H151.893L125.653 91.648V128H92.3725V32H158.037C163.498 32 168.319 32.896 172.501 34.688C176.682 36.3947 180.138 38.656 182.869 41.472C185.685 44.288 187.775 47.5307 189.141 51.2C190.591 54.8693 191.317 58.5813 191.317 62.336C191.317 65.8347 190.719 69.2907 189.525 72.704C188.415 76.032 186.709 79.0613 184.405 81.792C182.186 84.4373 179.37 86.6987 175.957 88.576C172.543 90.4533 168.618 91.6907 164.181 92.288L191.317 128ZM124.373 62.336V66.56H157.013V62.336H124.373ZM271.298 128H194.498V96.768H216.258V62.72H194.498V32H223.938C231.447 32 237.591 34.3893 242.37 39.168C247.148 43.9467 249.538 50.0907 249.538 57.6V96.768H271.298V128Z" fill="white"/>
<path d="M278 33H318C335.121 33 349 46.8792 349 64H278V33Z" fill="white"/>
<path d="M3 135H281V166H3V135Z" fill="white"/>
<path d="M3 175H322V206H3V175Z" fill="white"/>
<path d="M278 76H309V118H278V76Z" fill="white"/>
<path d="M278 166C295.121 166 309 152.121 309 135V130H278V166Z" fill="white"/>
<path d="M318 63H349V175C349 192.121 335.121 206 318 206V63Z" fill="white"/>
<path d="M278 107H309V135H278V107Z" fill="white"/>
<path d="M3 135H278C278 137.209 276.209 139 274 139H3V135Z" fill="#E40353"/>
<path d="M3 175H318C318 177.209 316.209 179 314 179H3V175Z" fill="#17BCD2"/>
</svg>
