<svg width="570" height="150" viewBox="0 0 570 150" fill="none" xmlns="http://www.w3.org/2000/svg">
<mask id="path-1-inside-1_26_5" fill="white">
<path d="M0 0H570V150H0V0Z"/>
</mask>
<path d="M0 0H570V150H0V0Z" fill="#232323" fill-opacity="0.6"/>
<path d="M570 147H0V153H570V147Z" fill="#232323" fill-opacity="0.6" mask="url(#path-1-inside-1_26_5)"/>
<path d="M233.496 120V114.15H230.646V112.5H238.346V114.15H235.496V120H233.496ZM238.403 120L238.873 114.64C238.94 113.84 239.156 113.263 239.523 112.91C239.896 112.557 240.366 112.38 240.933 112.38C241.54 112.38 242.02 112.567 242.373 112.94C242.733 113.307 242.963 113.81 243.063 114.45L243.653 118.18C243.666 118.26 243.686 118.32 243.713 118.36C243.746 118.4 243.796 118.42 243.863 118.42C243.93 118.42 243.98 118.397 244.013 118.35C244.046 118.303 244.066 118.24 244.073 118.16L244.643 114.44C244.736 113.807 244.96 113.307 245.313 112.94C245.673 112.567 246.153 112.38 246.753 112.38C247.386 112.38 247.856 112.56 248.163 112.92C248.476 113.273 248.666 113.847 248.733 114.64L249.203 120H247.273L246.873 114.35C246.866 114.283 246.853 114.227 246.833 114.18C246.82 114.133 246.78 114.11 246.713 114.11C246.66 114.11 246.616 114.133 246.583 114.18C246.55 114.22 246.53 114.27 246.523 114.33L245.853 118.34C245.766 118.873 245.55 119.303 245.203 119.63C244.863 119.957 244.413 120.12 243.853 120.12C243.273 120.12 242.81 119.953 242.463 119.62C242.116 119.28 241.9 118.85 241.813 118.33L241.113 114.34C241.1 114.267 241.076 114.21 241.043 114.17C241.01 114.13 240.966 114.11 240.913 114.11C240.846 114.11 240.8 114.133 240.773 114.18C240.753 114.227 240.74 114.287 240.733 114.36L240.333 120H238.403Z" fill="white" fill-opacity="0.5"/>
<path d="M334.443 111H312.883L298.533 91.12V111H280.333V58.5H316.243C319.229 58.5 321.866 58.99 324.153 59.97C326.439 60.9033 328.329 62.14 329.823 63.68C331.363 65.22 332.506 66.9933 333.253 69C334.046 71.0067 334.443 73.0367 334.443 75.09C334.443 77.0033 334.116 78.8933 333.463 80.76C332.856 82.58 331.923 84.2367 330.663 85.73C329.449 87.1767 327.909 88.4133 326.043 89.44C324.176 90.4667 322.029 91.1433 319.603 91.47L334.443 111ZM297.833 75.09V77.4H315.683V75.09H297.833ZM400.372 111H381.122L376.852 99.66H358.302L354.102 111H335.132L350.882 71.52C352.749 66.9 355.082 63.4233 357.882 61.09C360.729 58.7567 364.066 57.59 367.892 57.59C371.719 57.59 375.032 58.7567 377.832 61.09C380.679 63.4233 383.012 66.9 384.832 71.52L400.372 111ZM364.042 84.19H370.972L367.472 75.02L364.042 84.19ZM444.16 111H422.25C418.377 111 414.783 110.323 411.47 108.97C408.157 107.57 405.287 105.68 402.86 103.3C400.48 100.92 398.59 98.1433 397.19 94.97C395.837 91.75 395.16 88.3433 395.16 84.75C395.16 81.1567 395.837 77.7733 397.19 74.6C398.59 71.38 400.48 68.6033 402.86 66.27C405.287 63.89 408.157 62 411.47 60.6C414.783 59.2 418.377 58.5 422.25 58.5H444.16V74.6H426.8C423.3 74.6 420.407 75.4167 418.12 77.05C415.833 78.6833 414.69 81.25 414.69 84.75C414.69 88.2033 415.833 90.77 418.12 92.45C420.407 94.0833 423.3 94.9 426.8 94.9H444.16V111ZM495.643 111H446.993V58.5H495.643V74.6H465.543V76.98H495.643V92.52H465.543V94.9H495.643V111Z" fill="#C2C2C2" fill-opacity="0.5"/>
<path d="M113.004 111H53.6037V43.5H77.0037V90.3H113.004V111ZM186.191 111H158.471L140.021 85.44V111H116.621V43.5H162.791C166.631 43.5 170.021 44.13 172.961 45.39C175.901 46.59 178.331 48.18 180.251 50.16C182.231 52.14 183.701 54.42 184.661 57C185.681 59.58 186.191 62.19 186.191 64.83C186.191 67.29 185.771 69.72 184.931 72.12C184.151 74.46 182.951 76.59 181.331 78.51C179.771 80.37 177.791 81.96 175.391 83.28C172.991 84.6 170.231 85.47 167.111 85.89L186.191 111ZM139.121 64.83V67.8H162.071V64.83H139.121ZM242.428 111H188.428V89.04H203.728V65.1H188.428V43.5H209.128C214.408 43.5 218.728 45.18 222.088 48.54C225.448 51.9 227.128 56.22 227.128 61.5V89.04H242.428V111Z" fill="white"/>
</svg>
