<svg width="26" height="26" viewBox="0 0 26 26" fill="none" xmlns="http://www.w3.org/2000/svg">
<path d="M13 25.5012C19.9036 25.5012 25.5 19.9045 25.5 13.0006C25.5 6.09673 19.9036 0.5 13 0.5C6.09642 0.5 0.5 6.09673 0.5 13.0006C0.5 19.9045 6.09642 25.5012 13 25.5012Z" fill="#1C1C1D" stroke="#A4A4A4"/>
<path d="M13 7.21394C16.1902 7.21394 18.7852 9.81019 18.7852 12.9994C18.7852 16.1886 16.1902 18.7848 13 18.7848C9.80976 18.7848 7.21605 16.1886 7.21605 12.9994C7.21605 9.81019 9.80976 7.21394 13 7.21394ZM13 4.95258C8.55551 4.95258 4.95239 8.55588 4.95239 13.0006C4.95239 17.4453 8.55551 21.0486 13 21.0486C17.4457 21.0486 21.0488 17.4453 21.0488 13.0006C21.0488 8.55588 17.4457 4.95258 13 4.95258Z" fill="#CC3333"/>
</svg>
