<svg width="843" height="155" viewBox="0 0 843 155" fill="none" xmlns="http://www.w3.org/2000/svg">
<path d="M0 79.2864C0 107.808 14.3616 133.354 39.6672 145.853C63.4464 157.603 95.136 157.603 118.982 145.853C142.502 134.266 158.573 107.818 158.573 79.2864C158.573 35.6544 123.667 0 79.2864 0C34.6944 0 0 35.376 0 79.2864Z" fill="#157946"/>
<path d="M79.3248 20.5536C71.3472 47.6064 47.568 87.2544 30.2208 106.694H71.3472L71.4432 118.474C71.3472 125.155 66.0384 132.086 58.3104 131.99C47.568 131.866 34.1376 126.902 26.0256 113.126C20.112 103.075 15.8208 95.1552 15.8208 79.2864C15.8208 44.6016 43.7568 15.8688 79.296 15.8688C114.442 15.8688 142.771 45.4464 142.771 79.2864C142.771 95.1648 135.36 108.893 132.912 112.848C124.234 126.902 111.024 131.866 100.79 131.99C93.7344 132.077 87.2352 126.902 87.2352 118.435V106.685H128.995C111.014 87.2544 87.2352 47.616 79.3248 20.5536Z" fill="white"/>
<path d="M241.489 103H193.789C193.009 103 192.169 102.64 191.269 101.92C190.429 101.2 189.619 100.36 188.839 99.4C188.119 98.38 187.489 97.33 186.949 96.25C186.469 95.11 186.229 94.12 186.229 93.28V62.5C186.229 61.72 186.469 60.76 186.949 59.62C187.489 58.48 188.119 57.43 188.839 56.47C189.619 55.45 190.429 54.58 191.269 53.86C192.169 53.14 193.009 52.78 193.789 52.78H241.489C242.269 52.78 243.079 53.14 243.919 53.86C244.819 54.58 245.629 55.45 246.349 56.47C247.129 57.43 247.759 58.48 248.239 59.62C248.779 60.76 249.049 61.72 249.049 62.5V71.5H232.849V68.98C232.609 68.26 232.249 67.63 231.769 67.09C231.289 66.49 230.569 66.04 229.609 65.74H205.669C204.709 66.04 203.989 66.49 203.509 67.09C203.029 67.63 202.669 68.26 202.429 68.98V86.8C202.669 87.52 203.029 88.18 203.509 88.78C203.989 89.32 204.709 89.74 205.669 90.04H229.609C230.569 89.74 231.289 89.32 231.769 88.78C232.249 88.18 232.609 87.52 232.849 86.8V84.19H249.049V93.28C249.049 94.12 248.779 95.11 248.239 96.25C247.759 97.33 247.129 98.38 246.349 99.4C245.629 100.36 244.819 101.2 243.919 101.92C243.079 102.64 242.269 103 241.489 103ZM299.092 92.47C299.212 91.69 299.482 90.67 299.902 89.41C300.322 88.15 300.802 86.89 301.342 85.63C301.882 84.31 302.422 83.11 302.962 82.03C303.502 80.89 303.952 80.05 304.312 79.51H311.782L305.842 65.92H305.482L289.552 103H271.462L293.872 52.78H317.722L340.132 103H322.042L317.362 92.47H299.092ZM364.823 58.81C365.063 57.25 365.663 55.9 366.623 54.76C367.643 53.56 368.843 52.9 370.223 52.78H421.073V65.74H381.023V103H364.823V58.81ZM382.553 84.19L387.773 71.32H420.893V84.19H382.553ZM446.649 58.81C446.889 57.25 447.489 55.9 448.449 54.76C449.469 53.56 450.669 52.9 452.049 52.78H502.899V65.74H462.849V103H446.649V58.81ZM464.379 84.19L469.599 71.32H502.719V84.19H464.379ZM528.475 58.81C528.715 57.25 529.315 55.9 530.275 54.76C531.295 53.56 532.495 52.9 533.875 52.78H584.725V65.74H544.675V90.04H584.725V103H533.875C532.495 102.88 531.295 102.25 530.275 101.11C529.315 99.91 528.715 98.53 528.475 96.97V58.81ZM546.205 84.19L551.425 71.32H584.545V84.19H546.205ZM610.301 90.04H627.041V65.74H610.301V52.78H659.981V65.74H643.241V90.04H659.981V103H610.301V90.04ZM732.156 65.74H701.736V103H685.536V52.78H740.796C741.576 52.78 742.386 53.14 743.226 53.86C744.126 54.58 744.936 55.45 745.656 56.47C746.436 57.43 747.066 58.48 747.546 59.62C748.086 60.76 748.356 61.72 748.356 62.5V103H732.156V65.74ZM773.954 58.81C774.194 57.25 774.794 55.9 775.754 54.76C776.774 53.56 777.974 52.9 779.354 52.78H830.204V65.74H790.154V90.04H830.204V103H779.354C777.974 102.88 776.774 102.25 775.754 101.11C774.794 99.91 774.194 98.53 773.954 96.97V58.81ZM791.684 84.19L796.904 71.32H830.024V84.19H791.684Z" fill="white"/>
</svg>
