<svg width="77" height="148" viewBox="0 0 77 148" fill="none" xmlns="http://www.w3.org/2000/svg">
<rect x="31.3182" y="56.4749" width="3.02742" height="21.4185" rx="0.5" transform="rotate(85.6973 31.3182 56.4749)" fill="#424242" stroke="#636363" stroke-linejoin="round"/>
<rect x="31.925" y="74.5998" width="3.02742" height="26.9373" rx="0.5" transform="rotate(124.9 31.925 74.5998)" fill="#393939" stroke="#4F4F4F" stroke-linejoin="round"/>
<rect x="31.8249" y="78.2371" width="3.02742" height="26.9373" rx="0.5" transform="rotate(127.868 31.8249 78.2371)" fill="#424242" stroke="#636363" stroke-linejoin="round"/>
<rect x="0.461078" y="0.536103" width="3.02742" height="21.4185" rx="0.5" transform="matrix(-0.0750252 0.997182 0.997182 0.0750252 45.8029 56.0361)" fill="#424242" stroke="#636363" stroke-linejoin="round"/>
<rect x="0.69615" y="0.123998" width="3.02742" height="26.9373" rx="0.5" transform="matrix(0.572152 0.820147 0.820147 -0.572152 45.1961 74.161)" fill="#393939" stroke="#4F4F4F" stroke-linejoin="round"/>
<rect x="0.701636" y="0.0877866" width="3.02742" height="26.9373" rx="0.5" transform="matrix(0.61385 0.789423 0.789423 -0.61385 45.2962 77.7983)" fill="#424242" stroke="#636363" stroke-linejoin="round"/>
<path d="M45.5005 47.0222C45.5124 47.2894 45.7325 47.5 46 47.5H52C52.2761 47.5 52.5 47.7239 52.5 48V54.5C52.5 54.7761 52.2761 55 52 55H46.5C46.3612 55 46.2287 55.0577 46.1341 55.1593C46.0395 55.2609 45.9914 55.3972 46.0013 55.5356L48.5013 90.5356C48.5018 90.5432 48.5025 90.5508 48.5034 90.5584L51.3932 115.121C51.4769 115.833 51.7771 116.502 52.2533 117.038L55.4571 120.642C55.5885 120.79 55.7321 120.926 55.8866 121.05L65.4395 128.692C65.632 128.846 65.8402 128.979 66.0607 129.089L76.5 134.309V142.5H56.8604C56.2044 142.5 55.5617 142.684 55.0054 143.032L52.1684 144.805C51.8337 145.014 51.5368 145.279 51.2903 145.587L50.5103 146.562C50.0359 147.155 49.3176 147.5 48.5581 147.5H38.5H28.4419C27.6824 147.5 26.9641 147.155 26.4897 146.562L25.6505 145.513C25.4492 145.261 25.2141 145.038 24.9518 144.851L22.5729 143.152L22.2823 143.559L22.5729 143.152C21.9793 142.728 21.2681 142.5 20.5386 142.5H0.5V134.309L10.9393 129.089L10.7157 128.642L10.9393 129.089C11.1598 128.979 11.368 128.846 11.5605 128.692L21.1134 121.05C21.2679 120.926 21.4115 120.79 21.5429 120.642L24.7467 117.038C25.2229 116.502 25.5231 115.833 25.6068 115.121L28.4966 90.5584C28.4975 90.5508 28.4982 90.5432 28.4987 90.5356L30.9987 55.5356C31.0086 55.3972 30.9605 55.2609 30.8659 55.1593C30.7713 55.0577 30.6388 55 30.5 55H25C24.7239 55 24.5 54.7761 24.5 54.5V48C24.5 47.7239 24.7239 47.5 25 47.5H31C31.2675 47.5 31.4876 47.2894 31.4995 47.0222L33.4024 4.20768C33.4506 3.12247 34.1941 2.1926 35.2421 1.90678L37.8422 1.19766C38.2729 1.08021 38.7271 1.08021 39.1578 1.19766L41.7579 1.90678C42.8059 2.1926 43.5494 3.12247 43.5976 4.20768L45.5005 47.0222Z" fill="#424242" stroke="#636363" stroke-linejoin="round"/>
</svg>
