<svg width="45" height="46" viewBox="0 0 45 46" fill="none" xmlns="http://www.w3.org/2000/svg">
<path d="M14.158 40.0707C14.115 39.7695 14.3487 39.5 14.653 39.5H30.347C30.6513 39.5 30.885 39.7695 30.842 40.0707L30.1277 45.0707C30.0925 45.317 29.8815 45.5 29.6327 45.5H15.3673C15.1185 45.5 14.9075 45.317 14.8723 45.0707L14.158 40.0707Z" fill="#B3B3B3" stroke="#D9D9D9" stroke-linejoin="round"/>
<path d="M13.2338 0.831832C13.3049 0.632835 13.4934 0.5 13.7047 0.5H31.2953C31.5066 0.5 31.6951 0.632836 31.7662 0.831831L33.7921 6.5045C34.0053 7.10149 34.5708 7.5 35.2047 7.5H43.8706C44.1708 7.5 44.4033 7.76259 44.367 8.06053L42.0396 27.1447C42.0279 27.2409 41.9885 27.3316 41.9262 27.4058L31.9169 39.3216C31.8219 39.4347 31.6817 39.5 31.534 39.5H13.466C13.3183 39.5 13.1781 39.4347 13.0831 39.3216L3.07385 27.4058C3.01153 27.3316 2.97211 27.2409 2.96038 27.1447L0.633037 8.06053C0.596703 7.76259 0.829214 7.5 1.12936 7.5H9.79528C10.4292 7.5 10.9947 7.10149 11.2079 6.50451L13.2338 0.831832Z" fill="#B3B3B3" stroke="#D9D9D9" stroke-linejoin="round"/>
</svg>
