<svg width="45" height="43" viewBox="0 0 45 43" fill="none" xmlns="http://www.w3.org/2000/svg">
<path d="M10.6621 37.1314C10.6641 37.1296 10.666 37.1279 10.668 37.1261C10.673 37.1217 10.6782 37.1173 10.6834 37.113L21.5669 28.2084C21.6827 28.1136 21.8121 28.0366 21.9508 27.9802L35.1891 22.5868C35.3108 22.5372 35.4386 22.5038 35.569 22.4875L38.6126 22.107C38.8518 22.0771 39.0356 21.8809 39.0497 21.6403L39.9832 5.77112C40.0005 5.47715 40.1039 5.19478 40.2806 4.9592L40.6818 4.42433C40.8468 4.20425 41.0692 4.03379 41.3247 3.93162L41.5104 4.39586L41.3247 3.93162L42.2291 3.56986C42.3141 3.53583 42.4021 3.50967 42.492 3.4917L44.0981 3.17049C44.3318 3.12374 44.5 2.91854 44.5 2.6802V1.34964C44.5 1.01387 44.1756 0.773538 43.8544 0.871299L22.2395 7.44975L22.0939 6.97142L22.2395 7.44975C22.2083 7.45926 22.178 7.4718 22.1493 7.4872L21.9134 7.0463L22.1493 7.4872L1.26417 18.6583C1.10154 18.7453 1 18.9147 1 19.0992V42C1 42.2761 1.22386 42.5 1.5 42.5H4.61102C4.73611 42.5 4.85666 42.4531 4.94888 42.3686L10.6621 37.1314Z" fill="#B3B3B3" stroke="#D9D9D9" stroke-linejoin="round"/>
</svg>
