<svg width="57" height="20" viewBox="0 0 57 20" fill="none" xmlns="http://www.w3.org/2000/svg">
<path d="M4.25433 0.897786C4.30273 0.666039 4.50702 0.5 4.74377 0.5H52.2562C52.493 0.5 52.6973 0.666039 52.7457 0.897787L56.259 17.7213C56.3239 18.0319 56.0868 18.3235 55.7696 18.3235H55.3558C55.1191 18.3235 54.9148 18.1575 54.8664 17.9257L54.2159 14.811C54.0707 14.1158 53.4579 13.6176 52.7476 13.6176H30.9741C30.1457 13.6176 29.4741 14.2892 29.4741 15.1176V19C29.4741 19.2761 29.2503 19.5 28.9741 19.5H28.0259C27.7497 19.5 27.5259 19.2761 27.5259 19V15.1176C27.5259 14.2892 26.8543 13.6176 26.0259 13.6176H4.25239C3.54215 13.6176 2.92926 14.1158 2.78407 14.811L2.1336 17.9257C2.0852 18.1575 1.88091 18.3235 1.64416 18.3235H1.23041C0.913154 18.3235 0.676114 18.0319 0.740969 17.7213L4.25433 0.897786Z" fill="#B3B3B3" stroke="#D9D9D9" stroke-linejoin="round"/>
</svg>
