<svg width="45" height="43" viewBox="0 0 45 43" fill="none" xmlns="http://www.w3.org/2000/svg">
<path d="M34.3379 37.1314C34.3359 37.1296 34.334 37.1279 34.332 37.1261C34.327 37.1217 34.3218 37.1173 34.3166 37.113L23.4331 28.2084C23.3173 28.1136 23.1879 28.0366 23.0492 27.9802L9.81091 22.5868C9.68917 22.5372 9.56145 22.5038 9.43102 22.4875L6.38741 22.107C6.14824 22.0771 5.96445 21.8809 5.95029 21.6403L5.01681 5.77112C4.99952 5.47715 4.89608 5.19478 4.7194 4.9592L4.31825 4.42433C4.15318 4.20425 3.93077 4.03379 3.67534 3.93162L3.48964 4.39586L3.67534 3.93162L2.77094 3.56986C2.68587 3.53583 2.59787 3.50967 2.50803 3.4917L0.901942 3.17049C0.66823 3.12374 0.5 2.91854 0.5 2.6802V1.34964C0.5 1.01387 0.824365 0.773538 1.14558 0.871299L22.7605 7.44975L22.9061 6.97142L22.7605 7.44975C22.7917 7.45926 22.822 7.4718 22.8507 7.4872L23.0866 7.0463L22.8507 7.4872L43.7358 18.6583C43.8985 18.7453 44 18.9147 44 19.0992V42C44 42.2761 43.7761 42.5 43.5 42.5H40.389C40.2639 42.5 40.1433 42.4531 40.0511 42.3686L34.3379 37.1314Z" fill="#B3B3B3" stroke="#D9D9D9" stroke-linejoin="round"/>
</svg>
