<svg width="26" height="83" viewBox="0 0 26 83" fill="none" xmlns="http://www.w3.org/2000/svg">
<path d="M0.756337 1.1077C0.687509 0.795645 0.925053 0.5 1.2446 0.5H16.1723C16.2787 0.5 16.3824 0.533976 16.4682 0.596982L21.6709 4.41724C21.8325 4.53594 21.9076 4.73974 21.8616 4.93494L20.4054 11.1147C20.3522 11.3405 20.1507 11.5 19.9188 11.5H11.1408C10.2343 11.5 9.53498 12.2978 9.65367 13.1964L12.9664 38.2785C13.0035 38.5597 13.1196 38.8246 13.3012 39.0424L25.3841 53.542C25.459 53.6318 25.5 53.7451 25.5 53.862V81.5511C25.5 82.082 24.7817 82.247 24.5501 81.7692L18.4576 69.2036L12.4946 54.2961C12.4845 54.2708 12.4765 54.2447 12.4706 54.2181L0.756337 1.1077Z" fill="#B3B3B3" stroke="#D9D9D9" stroke-linejoin="round"/>
</svg>
