<svg width="26" height="83" viewBox="0 0 26 83" fill="none" xmlns="http://www.w3.org/2000/svg">
<path d="M25.2437 1.1077C25.3125 0.795645 25.0749 0.5 24.7554 0.5H9.82771C9.72126 0.5 9.61759 0.533976 9.53178 0.596982L4.32914 4.41724C4.16749 4.53594 4.0924 4.73974 4.1384 4.93494L5.59456 11.1147C5.64776 11.3405 5.84927 11.5 6.08123 11.5H14.8592C15.7657 11.5 16.465 12.2978 16.3463 13.1964L13.0336 38.2785C12.9965 38.5597 12.8804 38.8246 12.6988 39.0424L0.615896 53.542C0.541016 53.6318 0.500008 53.7451 0.500008 53.862V81.5511C0.500008 82.082 1.21828 82.247 1.44991 81.7692L7.54237 69.2036L13.5054 54.2961C13.5155 54.2708 13.5235 54.2447 13.5294 54.2181L25.2437 1.1077Z" fill="#B3B3B3" stroke="#D9D9D9" stroke-linejoin="round"/>
</svg>
