<svg width="77" height="116" viewBox="0 0 77 116" fill="none" xmlns="http://www.w3.org/2000/svg">
<path d="M16.011 90.1042C16.0159 90.1273 16.0224 90.15 16.0306 90.1721L21.501 105.091C21.5108 105.118 21.5183 105.146 21.5234 105.174L23.2937 114.911C23.3495 115.217 23.1137 115.5 22.8018 115.5H19.3346C19.0929 115.5 18.8859 115.327 18.8426 115.089L17.1412 105.732C17.0115 105.018 16.3904 104.5 15.6654 104.5H8.3004C8.06645 104.5 7.86378 104.338 7.81254 104.11L2.50739 80.4775C2.50089 80.4485 2.49698 80.4191 2.49571 80.3894L0.544397 35.0215C0.532169 34.7372 0.759361 34.5 1.04394 34.5H3.69269C3.92821 34.5 4.13179 34.6644 4.18145 34.8946L9.51098 59.6042L9.51124 59.6054L16.011 90.1042Z" fill="#B3B3B3" stroke="#D9D9D9" stroke-linejoin="round"/>
<path d="M60.989 90.1042C60.9841 90.1273 60.9776 90.15 60.9694 90.1721L55.499 105.091C55.4892 105.118 55.4817 105.146 55.4766 105.174L53.7063 114.911C53.6505 115.217 53.8863 115.5 54.1982 115.5H57.6654C57.9071 115.5 58.1141 115.327 58.1574 115.089L59.8588 105.732C59.9885 105.018 60.6096 104.5 61.3346 104.5H68.6996C68.9335 104.5 69.1362 104.338 69.1875 104.11L74.4926 80.4775C74.4991 80.4485 74.503 80.4191 74.5043 80.3894L76.4556 35.0215C76.4678 34.7372 76.2406 34.5 75.9561 34.5H73.3073C73.0718 34.5 72.8682 34.6644 72.8185 34.8946L67.489 59.6042L67.4888 59.6054L60.989 90.1042Z" fill="#B3B3B3" stroke="#D9D9D9" stroke-linejoin="round"/>
<path d="M3.5 7.74094C3.5 7.52087 3.64389 7.32668 3.85442 7.2626L24.671 0.927136C25.0174 0.821687 25.3576 1.10812 25.3127 1.46749L24.5739 7.37763C24.5396 7.65243 24.4298 7.91236 24.2568 8.12862L21.5324 11.5341C20.945 12.2683 20.2698 12.9277 19.5219 13.4976L11.1868 19.8481C10.5561 20.3287 9.87741 20.7427 9.16153 21.0836L0.802846 25.0639L2.97283 17.8306C3.3224 16.6654 3.5 15.4553 3.5 14.2388V7.74094Z" fill="#B3B3B3" stroke="#D9D9D9" stroke-linejoin="round"/>
<path d="M73.5 7.74094C73.5 7.52087 73.3561 7.32668 73.1456 7.2626L52.329 0.927136C51.9826 0.821687 51.6424 1.10812 51.6873 1.46749L52.4261 7.37763C52.4604 7.65243 52.5702 7.91236 52.7432 8.12862L55.4676 11.5341C56.055 12.2683 56.7302 12.9277 57.4781 13.4976L65.8132 19.8481C66.4439 20.3287 67.1226 20.7427 67.8385 21.0836L76.1972 25.0639L74.0272 17.8306C73.6776 16.6654 73.5 15.4553 73.5 14.2388V7.74094Z" fill="#B3B3B3" stroke="#D9D9D9" stroke-linejoin="round"/>
</svg>
