<svg width="90" height="47" viewBox="0 0 90 47" fill="none" xmlns="http://www.w3.org/2000/svg">
<rect width="90" height="47" fill="#444444"/>
<rect x="1" y="1" width="88" height="45" fill="white"/>
<path d="M25.712 10.8182V37H20.1765V16.0724H20.0231L14.0273 19.831V14.9219L20.5089 10.8182H25.712ZM41.4972 37.358C39.6903 37.358 38.0795 37.0256 36.6648 36.3608C35.2585 35.696 34.142 34.7798 33.3153 33.6122C32.4886 32.4446 32.0582 31.1065 32.0241 29.598H37.3935C37.4531 30.6122 37.8793 31.4347 38.6719 32.0653C39.4645 32.696 40.4062 33.0114 41.4972 33.0114C42.3665 33.0114 43.1335 32.8196 43.7983 32.4361C44.4716 32.044 44.9957 31.5028 45.3707 30.8125C45.7543 30.1136 45.946 29.3125 45.946 28.4091C45.946 27.4886 45.75 26.679 45.358 25.9801C44.9744 25.2812 44.4418 24.7358 43.7599 24.3438C43.0781 23.9517 42.2983 23.7514 41.4205 23.7429C40.6534 23.7429 39.9077 23.9006 39.1832 24.2159C38.4673 24.5312 37.9091 24.9616 37.5085 25.5071L32.5866 24.625L33.8267 10.8182H49.8324V15.3438H38.3906L37.7131 21.902H37.8665C38.3267 21.2543 39.0213 20.7173 39.9503 20.2912C40.8793 19.8651 41.919 19.652 43.0696 19.652C44.6463 19.652 46.0526 20.0227 47.2884 20.7642C48.5241 21.5057 49.5 22.5241 50.2159 23.8196C50.9318 25.1065 51.2855 26.5895 51.277 28.2685C51.2855 30.0327 50.8764 31.6009 50.0497 32.973C49.2315 34.3366 48.0852 35.4105 46.6108 36.1946C45.1449 36.9702 43.4403 37.358 41.4972 37.358ZM65.4034 37.5753C63.2045 37.5668 61.3125 37.0256 59.7273 35.9517C58.1506 34.8778 56.9361 33.3224 56.0838 31.2855C55.2401 29.2486 54.8224 26.7983 54.831 23.9347C54.831 21.0795 55.2528 18.6463 56.0966 16.6349C56.9489 14.6236 58.1634 13.0937 59.7401 12.0455C61.3253 10.9886 63.2131 10.4602 65.4034 10.4602C67.5938 10.4602 69.4773 10.9886 71.054 12.0455C72.6392 13.1023 73.858 14.6364 74.7102 16.6477C75.5625 18.6506 75.9844 21.0795 75.9759 23.9347C75.9759 26.8068 75.5497 29.2614 74.6974 31.2983C73.8537 33.3352 72.6435 34.8906 71.0668 35.9645C69.4901 37.0384 67.6023 37.5753 65.4034 37.5753ZM65.4034 32.9858C66.9034 32.9858 68.1009 32.2315 68.9957 30.723C69.8906 29.2145 70.3338 26.9517 70.3253 23.9347C70.3253 21.9489 70.1207 20.2955 69.7116 18.9744C69.3111 17.6534 68.7401 16.6605 67.9986 15.9957C67.2656 15.331 66.4006 14.9986 65.4034 14.9986C63.9119 14.9986 62.7188 15.7443 61.8239 17.2358C60.929 18.7273 60.4773 20.9602 60.4688 23.9347C60.4688 25.946 60.669 27.625 61.0696 28.9716C61.4787 30.3097 62.054 31.3153 62.7955 31.9886C63.5369 32.6534 64.4062 32.9858 65.4034 32.9858Z" fill="black"/>
</svg>
