<svg width="90" height="47" viewBox="0 0 90 47" fill="none" xmlns="http://www.w3.org/2000/svg">
<rect width="90" height="47" fill="#444444"/>
<rect x="1" y="1" width="88" height="45" fill="white"/>
<path d="M24.921 10.8182V37H19.3855V16.0724H19.2321L13.2363 19.831V14.9219L19.7179 10.8182H24.921ZM41.4093 37.5753C39.2104 37.5668 37.3184 37.0256 35.7331 35.9517C34.1564 34.8778 32.9419 33.3224 32.0897 31.2855C31.2459 29.2486 30.8283 26.7983 30.8368 23.9347C30.8368 21.0795 31.2587 18.6463 32.1025 16.6349C32.9547 14.6236 34.1692 13.0937 35.7459 12.0455C37.3311 10.9886 39.2189 10.4602 41.4093 10.4602C43.5996 10.4602 45.4831 10.9886 47.0598 12.0455C48.6451 13.1023 49.8638 14.6364 50.7161 16.6477C51.5684 18.6506 51.9902 21.0795 51.9817 23.9347C51.9817 26.8068 51.5556 29.2614 50.7033 31.2983C49.8596 33.3352 48.6493 34.8906 47.0726 35.9645C45.4959 37.0384 43.6081 37.5753 41.4093 37.5753ZM41.4093 32.9858C42.9093 32.9858 44.1067 32.2315 45.0016 30.723C45.8965 29.2145 46.3397 26.9517 46.3311 23.9347C46.3311 21.9489 46.1266 20.2955 45.7175 18.9744C45.3169 17.6534 44.7459 16.6605 44.0044 15.9957C43.2715 15.331 42.4064 14.9986 41.4093 14.9986C39.9178 14.9986 38.7246 15.7443 37.8297 17.2358C36.9348 18.7273 36.4831 20.9602 36.4746 23.9347C36.4746 25.946 36.6749 27.625 37.0755 28.9716C37.4846 30.3097 38.0598 31.3153 38.8013 31.9886C39.5428 32.6534 40.4121 32.9858 41.4093 32.9858ZM66.1944 37.5753C63.9956 37.5668 62.1035 37.0256 60.5183 35.9517C58.9416 34.8778 57.7271 33.3224 56.8748 31.2855C56.0311 29.2486 55.6135 26.7983 55.622 23.9347C55.622 21.0795 56.0439 18.6463 56.8876 16.6349C57.7399 14.6236 58.9544 13.0937 60.5311 12.0455C62.1163 10.9886 64.0041 10.4602 66.1944 10.4602C68.3848 10.4602 70.2683 10.9886 71.845 12.0455C73.4302 13.1023 74.649 14.6364 75.5012 16.6477C76.3535 18.6506 76.7754 21.0795 76.7669 23.9347C76.7669 26.8068 76.3407 29.2614 75.4885 31.2983C74.6447 33.3352 73.4345 34.8906 71.8578 35.9645C70.2811 37.0384 68.3933 37.5753 66.1944 37.5753ZM66.1944 32.9858C67.6944 32.9858 68.8919 32.2315 69.7868 30.723C70.6816 29.2145 71.1248 26.9517 71.1163 23.9347C71.1163 21.9489 70.9118 20.2955 70.5027 18.9744C70.1021 17.6534 69.5311 16.6605 68.7896 15.9957C68.0566 15.331 67.1916 14.9986 66.1944 14.9986C64.7029 14.9986 63.5098 15.7443 62.6149 17.2358C61.72 18.7273 61.2683 20.9602 61.2598 23.9347C61.2598 25.946 61.46 27.625 61.8606 28.9716C62.2697 30.3097 62.845 31.3153 63.5865 31.9886C64.3279 32.6534 65.1973 32.9858 66.1944 32.9858Z" fill="black"/>
</svg>
