<svg width="90" height="47" viewBox="0 0 90 47" fill="none" xmlns="http://www.w3.org/2000/svg">
<rect width="90" height="47" fill="#444444"/>
<rect x="1" y="1" width="88" height="45" fill="white"/>
<path d="M32.6905 37.358C30.8837 37.358 29.2729 37.0256 27.8581 36.3608C26.4519 35.696 25.3354 34.7798 24.5087 33.6122C23.682 32.4446 23.2516 31.1065 23.2175 29.598H28.5868C28.6465 30.6122 29.0726 31.4347 29.8652 32.0653C30.6578 32.696 31.5996 33.0114 32.6905 33.0114C33.5598 33.0114 34.3269 32.8196 34.9917 32.4361C35.665 32.044 36.1891 31.5028 36.5641 30.8125C36.9476 30.1136 37.1394 29.3125 37.1394 28.4091C37.1394 27.4886 36.9434 26.679 36.5513 25.9801C36.1678 25.2812 35.6351 24.7358 34.9533 24.3438C34.2715 23.9517 33.4917 23.7514 32.6138 23.7429C31.8468 23.7429 31.101 23.9006 30.3766 24.2159C29.6607 24.5312 29.1025 24.9616 28.7019 25.5071L23.78 24.625L25.0201 10.8182H41.0257V15.3438H29.584L28.9064 21.902H29.0598C29.5201 21.2543 30.2147 20.7173 31.1436 20.2912C32.0726 19.8651 33.1124 19.652 34.263 19.652C35.8397 19.652 37.2459 20.0227 38.4817 20.7642C39.7175 21.5057 40.6934 22.5241 41.4093 23.8196C42.1252 25.1065 42.4789 26.5895 42.4703 28.2685C42.4789 30.0327 42.0698 31.6009 41.2431 32.973C40.4249 34.3366 39.2786 35.4105 37.8042 36.1946C36.3382 36.9702 34.6337 37.358 32.6905 37.358ZM56.5968 37.5753C54.3979 37.5668 52.5059 37.0256 50.9206 35.9517C49.3439 34.8778 48.1294 33.3224 47.2772 31.2855C46.4334 29.2486 46.0158 26.7983 46.0243 23.9347C46.0243 21.0795 46.4462 18.6463 47.29 16.6349C48.1422 14.6236 49.3567 13.0937 50.9334 12.0455C52.5186 10.9886 54.4064 10.4602 56.5968 10.4602C58.7871 10.4602 60.6706 10.9886 62.2473 12.0455C63.8326 13.1023 65.0513 14.6364 65.9036 16.6477C66.7559 18.6506 67.1777 21.0795 67.1692 23.9347C67.1692 26.8068 66.7431 29.2614 65.8908 31.2983C65.0471 33.3352 63.8368 34.8906 62.2601 35.9645C60.6834 37.0384 58.7956 37.5753 56.5968 37.5753ZM56.5968 32.9858C58.0968 32.9858 59.2942 32.2315 60.1891 30.723C61.084 29.2145 61.5272 26.9517 61.5186 23.9347C61.5186 21.9489 61.3141 20.2955 60.905 18.9744C60.5044 17.6534 59.9334 16.6605 59.1919 15.9957C58.459 15.331 57.5939 14.9986 56.5968 14.9986C55.1053 14.9986 53.9121 15.7443 53.0172 17.2358C52.1223 18.7273 51.6706 20.9602 51.6621 23.9347C51.6621 25.946 51.8624 27.625 52.263 28.9716C52.6721 30.3097 53.2473 31.3153 53.9888 31.9886C54.7303 32.6534 55.5996 32.9858 56.5968 32.9858Z" fill="black"/>
</svg>
